# xmcd
#
# Track frame offsets:
#	150
#	15762
#	31903
#	47298
#	64296
#	81222
#	100576
#	113068
#	128518
#	148077
#	162083
#	181455
#	197987
#	213365
#	231668
#
# Disc length: 3310 seconds
#
# Revision: 1
# Processed by: cddbd v1.5.2PL0 Copyright (c) Steve Scherf et al.
# Submitted via: audiograbber 1.83.01
#
DISCID=c20cec0f
DTITLE=Eddie Rabbitt - ChartBuster 90328 Vol 2  Eddie Rabbitt
DYEAR=2008
DGENRE=Karaoke
TTITLE0=Eddie Rabbitt - Wanderer, The
TTITLE1=Eddie Rabbitt - Pour Me Another Tequila
TTITLE2=Eddie Rabbitt - I Can't Help Myself
TTITLE3=Eddie Rabbitt - We Can't Go On Livin' Like This
TTITLE4=Eddie Rabbitt - You Don't Love Me Anymore
TTITLE5=Eddie Rabbitt - I Just Want To Love You
TTITLE6=Eddie Rabbitt - B-B-B-Burnin' Up With Love
TTITLE7=Eddie Rabbitt - Best Year Of My Life, The
TTITLE8=Eddie Rabbitt - Kentucky Rain
TTITLE9=Eddie Rabbitt - Warning Sign
TTITLE10=Eddie Rabbitt - Runnin' With The Wind
TTITLE11=Eddie Rabbitt - Repetitive Regret
TTITLE12=Eddie Rabbitt - I Wanna Dance With You
TTITLE13=Eddie Rabbitt - Both To Each Other
TTITLE14=Eddie Rabbitt - I Don't Know Where To Start
EXTD=
EXTT0=
EXTT1=
EXTT2=
EXTT3=
EXTT4=
EXTT5=
EXTT6=
EXTT7=
EXTT8=
EXTT9=
EXTT10=
EXTT11=
EXTT12=
EXTT13=
EXTT14=
PLAYORDER=
